<svg width="67" height="65" viewBox="0 0 67 65" fill="none" xmlns="http://www.w3.org/2000/svg">
<path d="M43.9688 40.625V60.9375L62.8125 50.7812L43.9688 40.625Z" fill="white"/>
<path d="M29.3125 32.5C31.6252 32.5 33.5 30.6812 33.5 28.4375C33.5 26.1938 31.6252 24.375 29.3125 24.375C26.9998 24.375 25.125 26.1938 25.125 28.4375C25.125 30.6812 26.9998 32.5 29.3125 32.5Z" fill="white"/>
<path d="M29.3125 40.625C26.8279 40.625 24.399 39.9102 22.3332 38.571C20.2673 37.2319 18.6571 35.3284 17.7063 33.1015C16.7554 30.8745 16.5067 28.424 16.9914 26.0598C17.4761 23.6957 18.6726 21.5241 20.4295 19.8196C22.1864 18.1152 24.4248 16.9544 26.8617 16.4842C29.2986 16.0139 31.8245 16.2553 34.12 17.1777C36.4155 18.1002 38.3775 19.6623 39.7578 21.6665C41.1382 23.6707 41.875 26.027 41.875 28.4375C41.8713 31.6687 40.5466 34.7666 38.1915 37.0514C35.8364 39.3363 32.6432 40.6215 29.3125 40.625ZM29.3125 20.3125C27.6561 20.3125 26.0369 20.789 24.6596 21.6818C23.2823 22.5746 22.2089 23.8436 21.575 25.3282C20.9411 26.8129 20.7753 28.4465 21.0984 30.0226C21.4216 31.5987 22.2192 33.0464 23.3905 34.1827C24.5617 35.319 26.054 36.0929 27.6786 36.4064C29.3032 36.7199 30.9871 36.559 32.5175 35.944C34.0478 35.3291 35.3558 34.2877 36.2761 32.9515C37.1963 31.6154 37.6875 30.0445 37.6875 28.4375C37.685 26.2834 36.8018 24.2181 35.2318 22.6949C33.6617 21.1717 31.5329 20.3149 29.3125 20.3125Z" fill="white"/>
<path d="M54.3353 26.2234H54.3219C53.8754 21.2235 51.8554 16.4775 48.5356 12.6285C45.2158 8.77955 40.7567 6.01365 35.7624 4.70554C30.7681 3.39744 25.48 3.61037 20.6146 5.31548C15.7492 7.02059 11.5416 10.1355 8.56201 14.2381C5.5824 18.3407 3.97474 23.2327 3.95685 28.2514C3.93895 33.2701 5.51169 38.1728 8.46199 42.2953C11.4123 46.4178 15.5975 49.5609 20.4506 51.2986C25.3038 53.0363 30.5902 53.2847 35.5937 52.0102V47.8128C31.1561 49.1602 26.382 49.0333 22.0271 47.4522C17.6722 45.8711 13.9851 42.9262 11.5496 39.0834C9.11398 35.2407 8.06897 30.7196 8.57993 26.2359C9.09089 21.7521 11.1286 17.5617 14.3706 14.3279C17.6127 11.0941 21.8737 9.00163 26.4795 8.38163C31.0853 7.76164 35.7726 8.64955 39.7997 10.9048C43.8268 13.1601 46.9635 16.654 48.7135 20.8334C50.4635 25.0128 50.7268 29.6391 49.4617 33.98L53.4917 35.085C54.1205 32.9219 54.4387 30.685 54.4375 28.4375C54.4375 27.6916 54.4034 26.9536 54.3353 26.2234Z" fill="white"/>
</svg>
