<svg width="34" height="42" viewBox="0 0 34 42" fill="none" xmlns="http://www.w3.org/2000/svg">
<path d="M11 39H3.5V7.5H8V12H26V7.5H30.5V21H33.5V7.5C33.5 6.70435 33.1839 5.94129 32.6213 5.37868C32.0587 4.81607 31.2956 4.5 30.5 4.5H26V3C26 2.20435 25.6839 1.44129 25.1213 0.87868C24.5587 0.31607 23.7956 0 23 0H11C10.2044 0 9.44129 0.31607 8.87868 0.87868C8.31607 1.44129 8 2.20435 8 3V4.5H3.5C2.70435 4.5 1.94129 4.81607 1.37868 5.37868C0.81607 5.94129 0.5 6.70435 0.5 7.5V39C0.5 39.7957 0.81607 40.5587 1.37868 41.1213C1.94129 41.6839 2.70435 42 3.5 42H11V39ZM11 3H23V9H11V3Z" fill="white"/>
</svg>
